Coordinates
version=1
nRows=14
nColumns=36
inDegrees=yes

Units are S.I. units (second, meters, Newtons, ...)
If the header above contains a line with 'inDegrees', this indicates whether rotational values are in degrees (yes) or radians (no).

endheader
time	pelvis_tilt	pelvis_list	pelvis_rotation	pelvis_tx	pelvis_ty	pelvis_tz	hip_flexion_r	hip_adduction_r	hip_rotation_r	knee_angle_r	knee_angle_r_beta	ankle_angle_r	subtalar_angle_r	mtp_angle_r	hip_flexion_l	hip_adduction_l	hip_rotation_l	knee_angle_l	knee_angle_l_beta	ankle_angle_l	subtalar_angle_l	mtp_angle_l	lumbar_extension	lumbar_bending	lumbar_rotation	arm_flex_r	arm_add_r	arm_rot_r	elbow_flex_r	pro_sup_r	arm_flex_l	arm_add_l	arm_rot_l	elbow_flex_l	pro_sup_l
      0.00000000	     20.53326731	    -10.33396007	     -7.73589889	     -0.33602855	      0.51285877	     -0.35303710	     78.62413295	      8.61268121	    -14.61193007	     65.64172582	      1.14566424	     18.89434686	    -18.13977926	     -7.14535282	     81.55813442	     -9.89634322	      4.52709972	     80.88222573	      1.41166115	     47.66476168	     31.36541216	     -7.14535282	    -65.83849026	     -6.26450190	     -3.30190025	    146.99086406	     12.50373856	     46.18628285	     36.75934811	     73.06423841	     75.71922607	    -12.13107336	      1.69923935	     40.88004855	     86.65580883
      0.01666670	     12.28332859	     -9.55237827	    -10.00268255	     -0.30701030	      0.50284287	     -0.34843687	     87.85958461	      9.97060577	    -11.30130794	     67.86707134	      1.18450385	     32.02427712	      3.32167992	     -7.31752877	     90.47378794	     -7.88854367	      5.33533632	     79.40884036	      1.38594572	     45.49581392	     16.97540199	     -7.31752877	    -57.33137030	    -10.31655440	     -2.05583052	    144.21583943	     10.44554505	     40.94920864	     38.62098533	     81.17151722	     73.51438720	    -13.16809958	      5.25678548	     44.30237565	     79.16139801
      0.03333330	      6.55244918	     -9.88051605	    -11.46837940	     -0.29724494	      0.49989067	     -0.34895897	     93.11908323	      8.47350997	    -14.00235203	     71.46643764	      1.24732464	     36.16262063	      8.93029359	     -7.38241334	     96.27088070	     -5.07318028	      8.90305004	     81.28679274	      1.41872217	     42.97944131	      7.37965010	     -7.38241334	    -52.53983964	    -11.00396884	     -1.80109740	    141.33919771	     10.85655146	     35.78671508	     43.49714079	     86.89425667	     69.88604419	    -15.21290782	      4.30239784	     49.45279553	     74.07585039
      0.05000000	      2.90679750	    -10.14804810	    -11.07819206	     -0.27935761	      0.49645607	     -0.34880800	     96.84613121	      7.14888679	    -15.23307499	     74.22051221	      1.29539231	     35.31518918	     13.57706697	     -7.38668074	    100.93258619	     -4.01565393	     10.17169012	     83.53810428	      1.45801497	     41.81040810	      7.71985121	     -7.38668074	    -49.20507055	    -10.42297500	     -2.78888529	    137.54085135	     11.34034910	     32.82408275	     48.22522574	     86.25593790	     64.40043495	    -17.36639059	      2.89041203	     55.12914655	     72.38140813
      0.06666670	      1.70499800	    -10.39884274	    -10.33656769	     -0.28321139	      0.50118208	     -0.35741557	     97.77025392	      5.89016030	    -15.23892140	     75.18659911	      1.31225371	     33.18020902	     15.42819879	     -7.39885235	    102.17373041	     -2.51815427	     10.15296207	     83.49871024	      1.45732741	     40.77691961	      7.48157600	     -7.39885235	    -49.30297208	     -9.86593638	     -3.28271558	    136.74532345	     11.83139075	     31.83379774	     49.75529762	     84.55396748	     61.32618021	    -17.90511293	      2.41251194	     59.18749170	     68.39944134
      0.08333330	      0.91306720	    -10.53431931	     -9.07552979	     -0.28018437	      0.49473890	     -0.35653593	     98.88304910	      4.44748207	    -15.42821089	     75.66181861	      1.32054785	     34.67930222	     15.37052983	     -7.39974557	    103.34291454	     -1.43337786	      9.83229863	     83.20629931	      1.45222388	     39.98593675	      8.67726016	     -7.39974557	    -49.21098140	     -9.31996058	     -2.91654817	    136.22478016	     11.60399964	     31.09746259	     49.68238674	     84.02640357	     59.69399163	    -16.98461275	      2.89241169	     60.99345748	     68.22975031
      0.10000000	      0.47205762	    -10.36736044	     -8.17821640	     -0.27382835	      0.50160962	     -0.36021406	     98.89059226	      3.44881869	    -14.70581027	     75.60180608	      1.31950044	     35.36150273	     16.60339850	     -7.41269869	    104.05436606	     -0.89501238	      9.38212061	     83.18105315	      1.45178325	     38.53775134	     12.35599504	     -7.41269869	    -49.52602039	     -9.18505544	     -3.13114657	    135.45412124	     11.73490802	     30.65706360	     49.98146202	     79.45935120	     57.26363331	    -16.41946384	      1.82539444	     63.42832068	     66.32905102
      0.11666670	      0.40677185	    -10.23599711	     -6.87340428	     -0.27549325	      0.49909642	     -0.36057072	     99.18613122	      2.22736630	    -14.08076194	     76.12813760	      1.32868665	     35.23959719	     17.49526824	     -7.41558603	    104.16134656	     -0.28021118	      8.54803163	     82.50908465	      1.44005519	     36.51897297	     15.19973067	     -7.41558603	    -49.93813315	     -9.00212188	     -2.61172751	    134.90370599	     10.97572791	     30.12963431	     49.71476871	     78.77015013	     55.99228156	    -15.06068616	      2.16412237	     64.30635399	     66.40908938
      0.13333330	      0.49328055	    -10.12246932	     -5.76794771	     -0.26545650	      0.50111150	     -0.36194227	     99.32352807	      1.11240930	    -13.65468102	     76.77302449	      1.33994205	     35.01693673	     18.07054890	     -7.41651779	    104.23731536	      0.25415538	      7.79070566	     82.37324374	      1.43768432	     35.88131428	     16.33651572	     -7.41651779	    -50.23490861	     -8.73919600	     -2.00623927	    133.96399296	     10.38601630	     29.80825914	     49.78664900	     78.52716402	     53.80615077	    -13.72500860	      1.76459657	     65.27114545	     66.37638246
      0.15000000	      0.38091215	    -10.19833079	     -4.63385224	     -0.25814241	      0.50962141	     -0.36001338	     99.15812307	      0.33799224	    -13.18732001	     77.59453063	      1.35428004	     34.95074708	     20.19248367	     -7.41970840	    103.77979758	      0.38707470	      7.10564406	     82.01411506	      1.43141634	     35.79464336	     18.90390356	     -7.41970840	    -50.35240989	     -8.40329940	     -1.85956178	    132.14222125	     10.24512690	     28.94156174	     50.24741143	     78.25299345	     51.38239826	    -13.07689618	      1.04631169	     66.06761584	     66.51941331
      0.16666670	      0.78691378	    -10.06120178	     -3.62739476	     -0.26166218	      0.51661795	     -0.36420870	     98.18732505	     -0.40458090	    -12.64396389	     77.53596501	      1.35325788	     35.26208009	     19.99326691	     -7.42034333	    102.23058116	      0.63091850	      6.13860982	     80.78635217	      1.40998784	     35.51242981	     19.39191339	     -7.42034333	    -51.13254205	     -8.24263005	     -1.80548385	    130.47862274	      9.96010105	     28.83104795	     49.98316344	     78.30155040	     49.69422625	    -12.32795593	      0.58586812	     65.94070622	     66.46037178
      0.18333330	      1.30228128	    -10.03406968	     -2.01457794	     -0.25974611	      0.51366903	     -0.35874715	     97.80281139	     -1.26459580	    -12.08719487	     77.82816723	      1.35835777	     38.23337992	     20.79172995	     -7.42219450	    101.35256012	      1.06960117	      4.98180605	     79.98704825	      1.39603735	     36.20561052	     19.93063119	     -7.42219450	    -51.63313545	     -7.93454364	     -1.66520686	    128.61917720	      9.12431689	     28.45983811	     50.17623261	     78.57850054	     48.20673565	    -12.00294142	      1.02205494	     66.02008501	     66.59504298
      0.20000000	      1.84208852	    -10.05046679	     -1.20559684	     -0.26595138	      0.50814740	     -0.36102143	     97.61662055	     -1.52831642	    -11.51839060	     77.79539711	      1.35778582	     38.13059648	     21.20099402	     -7.42265078	    100.99887863	      1.14883108	      4.06228178	     79.55463957	      1.38849040	     36.48069284	     20.00864693	     -7.42265078	    -52.00900717	     -7.77674330	     -0.84755479	    127.20674565	      8.29739283	     28.46031723	     50.10706798	     78.64119873	     46.58942682	    -11.33381381	      1.32490837	     66.26893660	     66.63595191
      0.21666670	      2.48566392	     -9.64699119	     -0.65804274	     -0.27258457	      0.50562617	     -0.36555300	     97.50145829	     -1.76492028	    -10.50448109	     77.70223091	      1.35615977	     38.96044276	     21.81344327	     -7.42400690	    100.39010529	      1.55134274	      3.17812298	     78.70323031	      1.37363050	     37.44644902	     19.45851113	     -7.42400690	    -52.46978690	     -7.93971367	      0.13988850	    126.12228873	      7.00903302	     28.66457332	     49.88320219	     78.87846082	     45.52999046	    -10.41886384	      2.01322087	     66.01214042	     66.83549055
